<?xml version="1.0" standalone="no"?><!DOCTYPE svg PUBLIC "-//W3C//DTD SVG 1.1//EN" "http://www.w3.org/Graphics/SVG/1.1/DTD/svg11.dtd"><svg t="1564897824902" class="icon" viewBox="0 0 1024 1024" version="1.1" xmlns="http://www.w3.org/2000/svg" p-id="877" xmlns:xlink="http://www.w3.org/1999/xlink" width="200" height="200"><defs><style type="text/css">html, * { user-select: text !important; }
</style></defs><path d="M146.286 0C65.495 0 0 65.494 0 146.286v731.429c0 80.791 65.494 146.286 146.286 146.286h731.429c80.791 0 146.286-65.494 146.286-146.286V146.286C1024.001 65.495 958.507 0 877.715 0H146.286zM91.635 294.906c2.543-2.721 7.151-1.692 9.132 1.285 1.001 3.942 0.104 8.676 2.919 11.932 4.316 4.263 10.737 4.006 16.303 4.156 88.981-0.043 177.961-0.021 266.942-0.021 6.275-0.621 12.613 4.67 12.655 11.29 0.167 16.474 0.146 32.991-0.021 49.465-0.083 6.577-6.4 11.782-12.655 11.225-26.457 0.15-52.934-0.15-79.39 0.107-7.047-0.064-12.259 7.134-11.446 14.075 0 94.281 0.042 188.583-0.021 282.864 0.605 6.534-4.607 13.004-11.091 13.068-22.266 0.3-44.553 0.064-66.819 0.107-7.088 0.835-13.822-5.634-13.114-13.025-0.042-94.345 0-188.712 0-283.078 0.646-6.427-3.69-13.218-10.195-13.903-26.373-0.814-52.809 0.75-79.161-1.05-12.634-0.921-26.06-5.613-33.295-16.988-15.49-21.744-7.109-52.892 9.257-71.509z m583.941 64.247c18.117-4.713 37.923-1.371 53.726 8.89 13.927 9.062 26.853 22.108 30.022 39.396 0.334 5.141 7.276 7.455 10.237 3.106 14.093-15.896 34.045-26.435 55.165-26.735 34.546-0.621 68.237 17.01 90.482 43.766 22.954 27.442 32.815 64.011 34.358 99.615 1.543 36.933-3.315 75.6-22.141 107.798-16.679 28.963-45.47 50.129-77.535 57.006-22.412 5.163-47.326 2.549-66.631-10.904-4.482-2.828-7.985-7.091-12.717-9.426-4.295-1.05-7.735 3.342-7.047 7.541-0.063 37.125 0.021 74.251-0.021 111.397 0.667 6.662-4.858 13.218-11.467 13.046-22.308 0.193-44.636 0.086-66.944 0.064-6.901 0.643-13.218-5.827-12.613-12.918-0.063-110.776-0.021-221.574-0.021-332.35-0.271-17.866-0.25-36.29-6.088-53.364-3.023-9.233-10.382-16.988-19.952-18.681-5.108-0.107-8.339-6.598-4.607-10.583 10.028-7.734 21.599-13.496 33.795-16.667z m118.94 96.766c-10.174 2.935-20.536 7.755-26.978 16.71-4.149 5.806-4.107 13.325-4.086 20.202 0.167 34.233-0.188 68.488 0.167 102.7 0.063 15.06 14.99 23.308 27.687 25.471 29.25 7.069 58.771-13.432 71.385-39.803 12.05-26.093 11.175-57.327 1.772-84.127-9.882-28.192-40.738-49.272-69.946-41.153z m-262.939-52.528c0.584-6.748 3.69-14.953 11.383-15.339 22.349-0.343 44.72-0.086 67.069-0.129 6.838-0.686 13.197 5.656 12.676 12.725 0.063 73.651 0.063 147.302-0.021 220.953 0.584 15.788 4.065 34.105 17.846 43.424 3.794 3.021 11.571 3.321 11.154 9.79-0.271 4.863-5.567 6.213-8.923 8.355-19.514 10.283-42.051 18.359-64.129 13.111-18.201-4.135-32.565-19.13-39.278-36.59-1.689-3.192-2.189-8.291-6.463-8.869-4.462-0.857-6.38 3.835-8.631 6.748-10.382 15.36-24.955 28.985-43.198 33.119-32.878 7.369-69.884-1.585-93.817-26.585-26.081-27.035-38.173-65.467-40.571-102.764-0.625-35.84 4.42-73.03 21.891-104.585 12.363-22.515 32.44-40.446 56.082-49.422 23.058-9.126 48.201-10.197 72.636-9.083 11.55 0.536 23.1 2.078 34.295 5.141z m-42.26 44.987c-21.828 2.271-42.239 15.339-53.497 34.726-16.116 27.421-18.326 61.911-10.091 92.374 5.337 18.83 15.595 37.939 33.316 46.937 14.114 7.391 30.626 4.113 44.97-0.728 15.761-5.377 29.459-21.016 27.707-38.903-0.125-39.975 0.042-79.949-0.063-119.902 0.459-5.784-2.919-11.997-8.673-13.282-10.966-3.042-22.495-2.464-33.67-1.221z" fill="#14B9C8" p-id="878"></path></svg>